<svg xmlns="http://www.w3.org/2000/svg" viewBox="0 0 197.81 87.12"><defs><style>.cls-1,.cls-3{fill:#fff;}.cls-2{fill:#8c8c8c;stroke:#fff;stroke-width:6px;}.cls-11,.cls-2{stroke-miterlimit:10;}.cls-3{font-size:32.17px;font-family:Bauhaus93, "Bauhaus 93";}.cls-4{fill:#0e131c;}.cls-5{fill:#4b5755;}.cls-6{fill:#ced0c5;}.cls-7{fill:#78837f;}.cls-8{fill:#283856;}.cls-9{fill:#192133;}.cls-10{fill:none;}.cls-11{fill:#edede5;stroke:#636666;}.cls-12{fill:#1d263d;}.cls-13{fill:#959999;}.cls-14{fill:#253251;}.cls-15{fill:#222c4c;}.cls-16{fill:#636666;}</style></defs><g id="Layer_2" data-name="Layer 2"><g id="Character"><path class="cls-1" d="M96.38,46.3c.32.14,15.48,0,15.48,0l-7.35,32.38c-4.87.48-7.73,3-18.89,2.75l6.45-35.73Z"/><polygon class="cls-1" points="17.07 16.75 17.07 6.72 50.98 1.87 76.3 6.29 87.28 10.06 84.81 17.74 18.74 23.11 17.07 16.75"/><path class="cls-1" d="M92.59,47.46V43.93h8.48a109,109,0,0,0,1.26-16.8S80.88,5.46,5,18.73A6,6,0,0,0,.14,25.88c.19.92.4,1.83.6,2.75s.47,2.05.71,3.08S2,34,2.25,35.07s.57,2.39.87,3.58.63,2.51.94,3.77.67,2.59,1,3.89l1.05,4c.36,1.34.72,2.67,1.09,4s.73,2.66,1.11,4,.74,2.62,1.12,3.92.75,2.54,1.13,3.81.75,2.43,1.13,3.64.73,2.29,1.11,3.43.71,2.11,1.08,3.17.69,1.91,1,2.85.65,1.68,1,2.5.61,1.41.94,2.1.55,1.1.87,1.63a8.16,8.16,0,0,0,.79,1.13,2.6,2.6,0,0,0,.89.5,12.17,12.17,0,0,0,2.09,0l.93-.15,1-.16,2-.32L28,86l2.89-.41,3.24-.43c1.18-.16,2.36-.3,3.54-.44l3.8-.44,4-.41c1.39-.14,2.77-.26,4.16-.38s2.85-.23,4.28-.33,2.89-.19,4.34-.26,2.9-.14,4.36-.19,2.88-.08,4.32-.1,2.84,0,4.26,0,2.75.06,4.13.13,2.63.16,4,.27,2.5.25,3.74.43,2.32.35,3.47.58,2.12.47,3.16.77,1.89.59,2.8,1l0,0s5.18-19.54,8.08-38.29Z"/><polygon class="cls-1" points="106.43 83.91 104.52 80.46 90.25 82.19 89.24 84.67 106.43 83.91"/><path class="cls-1" d="M89.21,10.35a1.33,1.33,0,0,0-.58-1.09C84.09,6,53.74-7.35,15.72,5.43c-1.33.45-1.29,3.37-1.11,5.31.08.87,1.27,1.72,2,1.12,5.34-4.5,41-13.47,69,.36C88.05,13,89.16,12.24,89.21,10.35Z"/><path class="cls-1" d="M62.24,84.28s11.2-65,13.62-68c1.57-1.93,18.37,4.81,18.88,5.6,1.11,1.72-10.34,60.8-15.11,63.83A151.77,151.77,0,0,0,62.24,84.28Z"/><path class="cls-1" d="M95.51,46.68V43.85h6.14c1-9.12,1.54-16.21,1-16.72-.85-.88-6.83-5.2-9.11-5.58-1.85-.31-12,65.08-14.15,64.19,7.32.05,13.74-.24,13.74-.24,2.79-1.86,6.13-22.22,8.14-38.82Z"/><path class="cls-1" d="M6.7,19S21.54,81.86,26.15,86.13c0,0,10.56-1.6,13.16-1.35a.4.4,0,0,0,.44-.39l-1-69.69S12.31,16.65,6.7,19Z"/><path class="cls-1" d="M39.53,84.83a.28.28,0,0,1-.27-.24c-.53-4.33-8.42-68.61-5.81-72.1s45,1.91,43.61,3.76c-1.69,2.21-9.89,64.37-13.35,68C63.71,84.21,49.41,84.87,39.53,84.83Z"/><path class="cls-2" d="M18.07,42.08h162a14.69,14.69,0,0,1,14.69,14.69V69.43a14.69,14.69,0,0,1-14.69,14.69H35.37a17.3,17.3,0,0,1-17.3-17.3V42.08A0,0,0,0,1,18.07,42.08Z"/><text class="cls-3" transform="translate(116.62 73.67)">BLUE</text><path class="cls-4" d="M91.19,45.4c.28.14,17.68,1.73,17.68,1.73l-3.32,36.34c-4.31.44-14.82.1-24.71-.16L87.27,46.2Z"/><polygon class="cls-5" points="22.19 19.47 22.19 10.2 50.49 5.72 71.61 9.8 80.77 13.29 78.72 20.38 23.59 25.34 22.19 19.47"/><polygon class="cls-6" points="90.68 67.72 90.68 66.99 81.55 66.99 81.55 67.52 90.68 67.72"/><polygon class="cls-6" points="81.9 68.36 91.1 68.57 91.1 67.84 90.68 67.84 81.9 67.84 81.9 68.36"/><polygon class="cls-6" points="82.26 69.21 91.53 69.42 91.53 68.69 91.1 68.69 82.26 68.69 82.26 69.21"/><polygon class="cls-6" points="82.62 70.06 91.95 70.27 91.95 69.53 91.53 69.53 82.62 69.53 82.62 70.06"/><polygon class="cls-6" points="82.97 70.91 92.37 71.11 92.37 70.38 91.95 70.38 82.97 70.38 82.97 70.91"/><polygon class="cls-6" points="83.33 71.76 92.8 71.96 92.8 71.23 92.37 71.23 83.33 71.23 83.33 71.76"/><polygon class="cls-6" points="83.69 72.61 93.22 72.81 93.22 72.08 92.8 72.08 83.69 72.08 83.69 72.61"/><polygon class="cls-6" points="84.05 73.45 93.64 73.66 93.64 72.92 93.22 72.92 84.05 72.92 84.05 73.45"/><polygon class="cls-6" points="84.4 74.3 94.06 74.5 94.06 73.77 93.64 73.77 84.4 73.77 84.4 74.3"/><polygon class="cls-6" points="84.76 75.15 94.49 75.35 94.49 74.62 94.06 74.62 84.76 74.62 84.76 75.15"/><polygon class="cls-6" points="85.12 76 94.91 76.2 94.91 75.47 94.49 75.47 85.12 75.47 85.12 76"/><polygon class="cls-6" points="85.47 76.84 95.33 77.05 95.33 76.32 94.91 76.32 85.47 76.32 85.47 76.84"/><polygon class="cls-6" points="85.83 77.69 95.76 77.9 95.76 77.17 95.33 77.17 85.83 77.17 85.83 77.69"/><polygon class="cls-6" points="86.19 78.54 96.18 78.75 96.18 78.01 95.76 78.01 86.19 78.01 86.19 78.54"/><polygon class="cls-6" points="86.55 79.39 96.6 79.59 96.6 78.86 96.18 78.86 86.55 78.86 86.55 79.39"/><polygon class="cls-6" points="86.9 80.24 97.03 80.44 97.03 79.71 96.6 79.71 86.9 79.71 86.9 80.24"/><polygon class="cls-6" points="87.26 81.08 97.45 81.29 97.45 80.56 97.03 80.56 87.26 80.56 87.26 81.08"/><polygon class="cls-6" points="87.62 81.93 97.87 82.14 97.87 81.41 97.45 81.41 87.62 81.41 87.62 81.93"/><polygon class="cls-6" points="87.97 82.78 98.29 82.98 98.29 82.25 97.87 82.25 87.97 82.25 87.97 82.78"/><polygon class="cls-6" points="98.29 83.1 88.33 83.1 88.33 83.63 98.72 83.83 98.72 83.1 98.29 83.1"/><polygon class="cls-7" points="88.33 83.1 98.29 83.1 98.29 82.98 87.97 82.78 87.97 82.25 97.87 82.25 97.87 82.14 87.62 81.93 87.62 81.41 97.45 81.41 97.45 81.29 87.26 81.08 87.26 80.56 97.03 80.56 97.03 80.44 86.9 80.24 86.9 79.71 96.6 79.71 96.6 79.59 86.55 79.39 86.55 78.86 96.18 78.86 96.18 78.75 86.19 78.54 86.19 78.01 95.76 78.01 95.76 77.9 85.83 77.69 85.83 77.17 95.33 77.17 95.33 77.05 85.47 76.84 85.47 76.32 94.91 76.32 94.91 76.2 85.12 76 85.12 75.47 94.49 75.47 94.49 75.35 84.76 75.15 84.76 74.62 94.06 74.62 94.06 74.5 84.4 74.3 84.4 73.77 93.64 73.77 93.64 73.66 84.05 73.45 84.05 72.92 93.22 72.92 93.22 72.81 83.69 72.61 83.69 72.08 92.8 72.08 92.8 71.96 83.33 71.76 83.33 71.23 92.37 71.23 92.37 71.11 82.97 70.91 82.97 70.38 91.95 70.38 91.95 70.27 82.62 70.06 82.62 69.53 91.53 69.53 91.53 69.42 82.26 69.21 82.26 68.69 91.1 68.69 91.1 68.57 81.9 68.36 81.9 67.84 90.68 67.84 90.68 67.72 81.55 67.52 81.55 66.99 81.18 66.99 82.1 83.34 88.33 83.9 98.72 83.98 98.72 83.83 88.33 83.63 88.33 83.1"/><path class="cls-8" d="M5.74,27.9C9.14,42.48,18.4,81,22.19,84.52c0,0,49.15-7.85,66.45-.54,0,0,9.51-36.85,9.07-54.92,0,0-19.31-20-87.63-7.77A5.46,5.46,0,0,0,5.74,27.9Z"/><polygon class="cls-9" points="107.87 83.63 101.8 83.63 107.28 48.36 94.89 48.36 95.77 44.56 111.86 44.56 107.87 83.63"/><polygon class="cls-10" points="101.1 84.22 83.66 85.12 84.56 82.93 101.1 82.23 101.1 84.22"/><polygon class="cls-10" points="100 81.53 98.31 78.35 85.66 79.94 84.76 82.23 100 81.53"/><path class="cls-11" d="M82.38,13.55a1.23,1.23,0,0,0-.48-1C78.11,9.55,52.78-2.81,21.06,9c-1.11.42-1.07,3.12-.92,4.91.07.81,1.06,1.59,1.66,1C26.25,10.79,56,2.5,79.38,15.28,81.42,16,82.34,15.3,82.38,13.55Z"/><path class="cls-12" d="M60.81,81.87s9.93-60.06,12.08-62.8c1.4-1.78,16,4.13,16.51,4.86,1,1.59-8.93,56.51-13.17,59.3A130,130,0,0,0,60.81,81.87Z"/><path class="cls-9" d="M76.07,83.23c2,.82,11.45-59.62,13.16-59.33,2.13.35,7.69,4.35,8.48,5.16C99,30.41,92.88,81.18,88.64,84A121.19,121.19,0,0,0,76.07,83.23Z"/><path class="cls-13" d="M24.37,14a7.05,7.05,0,0,1,.32,5.28A7,7,0,0,1,24.37,14Z"/><path class="cls-14" d="M12.43,20.88S24.72,79.64,28.8,83.58c0,0,9.37-1.47,11.67-1.24a.36.36,0,0,0,.4-.36L40,17.57S17.41,18.69,12.43,20.88Z"/><path class="cls-13" d="M44.24,9.57a7.12,7.12,0,0,1-.14,5.33,7.17,7.17,0,0,1,.14-5.33Z"/><path class="cls-15" d="M40.67,82.38a.25.25,0,0,1-.24-.21c-.47-4-7.46-63.41-5.15-66.64S75.21,17.29,74,19c-1.49,2-8.77,59.48-11.84,62.8C62.11,81.81,49.43,82.42,40.67,82.38Z"/><path class="cls-16" d="M28.44,7.43a4.24,4.24,0,0,1,.46,4,4.22,4.22,0,0,1-.46-4Z"/><path class="cls-16" d="M38.32,5.05a4.15,4.15,0,0,1,.08,4,4.12,4.12,0,0,1-.08-4Z"/><path class="cls-16" d="M49,4.3a3.72,3.72,0,0,1-.06,3.77A3.69,3.69,0,0,1,49,4.3Z"/><path class="cls-16" d="M57.26,5A4.26,4.26,0,0,1,57,9.07,4.26,4.26,0,0,1,57.26,5Z"/><path class="cls-16" d="M65.08,5.87a4.21,4.21,0,0,1-.63,4,4.24,4.24,0,0,1,.63-4Z"/><path class="cls-16" d="M73.53,8.66a3.6,3.6,0,0,1-.65,3.65,3.59,3.59,0,0,1,.65-3.65Z"/><path class="cls-13" d="M31.16,11.79a8.2,8.2,0,0,1,.57,5.7,8.26,8.26,0,0,1-.57-5.7Z"/><path class="cls-13" d="M59.12,10.2A7.17,7.17,0,0,1,59,15.53a7.12,7.12,0,0,1,.13-5.33Z"/><path class="cls-13" d="M69.75,12A7.33,7.33,0,0,1,69,17.32,7.29,7.29,0,0,1,69.75,12Z"/></g></g></svg>