<svg xmlns="http://www.w3.org/2000/svg" width="175.126" height="35.66" viewBox="0 0 175.126 35.66">
  <g id="continue_btn" transform="translate(-94.695 -310.531)">
    <rect id="Rectangle_22" data-name="Rectangle 22" width="175.126" height="35.66" rx="4.47" transform="translate(94.695 310.531)" fill="#d72323"/>
    <path id="Path_1251" data-name="Path 1251" d="M9.505-6.051,14.4-6.236a6.952,6.952,0,0,1-2.123,4.68A6.475,6.475,0,0,1,7.62.277a6.626,6.626,0,0,1-4.9-2.017,6.757,6.757,0,0,1-2-4.944,6.425,6.425,0,0,1,2.017-4.759,6.666,6.666,0,0,1,4.838-1.978,6.637,6.637,0,0,1,4.351,1.556A6.6,6.6,0,0,1,14.278-7.9l-5,.185a1.978,1.978,0,0,0-1.635-.844A1.851,1.851,0,0,0,6.262-8a1.919,1.919,0,0,0-.541,1.4A1.963,1.963,0,0,0,6.3-5.168a1.93,1.93,0,0,0,1.43.58A1.859,1.859,0,0,0,9.505-6.051Zm13.276-7.37a6.515,6.515,0,0,1,4.792,2.01,6.6,6.6,0,0,1,2,4.819A6.576,6.576,0,0,1,27.547-1.74a6.689,6.689,0,0,1-4.885,2,6.7,6.7,0,0,1-4.891-2.01,6.571,6.571,0,0,1-2.03-4.845,6.5,6.5,0,0,1,2.03-4.858A6.914,6.914,0,0,1,22.781-13.421Zm-.132,4.865a1.8,1.8,0,0,0-1.345.573,1.945,1.945,0,0,0-.554,1.4,1.939,1.939,0,0,0,.56,1.4,1.8,1.8,0,0,0,1.338.58A1.811,1.811,0,0,0,24-5.181a1.939,1.939,0,0,0,.56-1.4,1.945,1.945,0,0,0-.554-1.4A1.814,1.814,0,0,0,22.649-8.556ZM43.348,0H38.417V-7.422q0-1.134-.936-1.134t-.923,1.134V0H31.627V-7.33a5.993,5.993,0,0,1,1.7-4.331,5.569,5.569,0,0,1,4.166-1.76,5.588,5.588,0,0,1,4.522,2.043,6.735,6.735,0,0,1,1.332,4.443Zm7.264-18v5.036h2.215v5.208H50.612a3.484,3.484,0,0,0,.494,2.162A2.271,2.271,0,0,0,52.919-5V.185Q52.537.2,52.352.2A6.7,6.7,0,0,1,49.195-.58a6.392,6.392,0,0,1-2.38-2.109A8.006,8.006,0,0,1,45.681-7.2V-18Zm9.571,4.852V0H55.252V-13.144Zm-2.452-5.867a2.414,2.414,0,0,1,1.734.705,2.241,2.241,0,0,1,.732,1.668A2.228,2.228,0,0,1,59.5-14.95a2.466,2.466,0,0,1-1.773.659,2.466,2.466,0,0,1-1.773-.659,2.228,2.228,0,0,1-.692-1.687A2.241,2.241,0,0,1,56-18.305,2.414,2.414,0,0,1,57.731-19.011ZM74.8,0H69.873V-7.422q0-1.134-.936-1.134t-.923,1.134V0H63.083V-7.33a5.993,5.993,0,0,1,1.7-4.331,5.569,5.569,0,0,1,4.166-1.76,5.588,5.588,0,0,1,4.522,2.043A6.735,6.735,0,0,1,74.8-6.935Zm2.874-12.959h4.931v7.422q0,1.121.936,1.121t.923-1.121v-7.422H89.4v7.33a5.977,5.977,0,0,1-1.7,4.318A5.569,5.569,0,0,1,83.531.448,5.611,5.611,0,0,1,79.009-1.6a6.713,6.713,0,0,1-1.332-4.43Zm27.514,7.185H97.717a3.622,3.622,0,0,1-.171-1.042,3.652,3.652,0,0,1,.237-1.292h2.5A1.55,1.55,0,0,0,98.64-9.571a1.789,1.789,0,0,0-1.5.784,3.293,3.293,0,0,0-.58,2.01,3.5,3.5,0,0,0,.56,2.07,1.723,1.723,0,0,0,1.47.791,1.963,1.963,0,0,0,1.424-.738l2.808,3.375A6.9,6.9,0,0,1,98.455.264,6.727,6.727,0,0,1,93.538-1.7a6.562,6.562,0,0,1-1.991-4.865,6.6,6.6,0,0,1,2.01-4.878,6.746,6.746,0,0,1,4.937-1.991A6.528,6.528,0,0,1,103.3-11.49,6.512,6.512,0,0,1,105.245-6.7Q105.245-6.407,105.192-5.774Z" transform="translate(128.786 337.548)" fill="#f5eded"/>
  </g>
</svg>
