<svg xmlns="http://www.w3.org/2000/svg" width="146.126" height="35.66" viewBox="0 0 146.126 35.66">
  <g id="export_btn" transform="translate(-94.695 -310.531)">
    <rect id="Rectangle_22" data-name="Rectangle 22" width="146.126" height="35.66" rx="4.47" transform="translate(94.695 310.531)" fill="#d72323"/>
    <path id="Path_1253" data-name="Path 1253" d="M11.4-11v4.008H7.91A1.8,1.8,0,0,0,6.9-6.776a.813.813,0,0,0-.3.712.8.8,0,0,0,.3.745,2.812,2.812,0,0,0,1.239.178h3.6V0H7.541A6.546,6.546,0,0,1,3.006-1.417,5.233,5.233,0,0,1,1.437-5.511v-7.053A5.294,5.294,0,0,1,2.92-16.572,5.781,5.781,0,0,1,7.093-18h4.654v5.168H8.332q-1.384,0-1.384.9a.791.791,0,0,0,.33.732,2.393,2.393,0,0,0,1.173.2Zm9.677-2.149h4.931v2.887a4.664,4.664,0,0,1-.363,2A3.377,3.377,0,0,1,24.4-6.921,3.556,3.556,0,0,1,25.655-5.59a4.328,4.328,0,0,1,.356,1.9V0H21.081V-3.968q0-1.358-.949-1.358-.923,0-.923,1.173V0H14.278V-3.507a3.922,3.922,0,0,1,.442-1.978,4.334,4.334,0,0,1,1.536-1.437,4.525,4.525,0,0,1-1.536-1.5,4.105,4.105,0,0,1-.442-2.017v-2.7h4.931v3.322a1.309,1.309,0,0,0,.264.844.824.824,0,0,0,.672.33q.936,0,.936-1.173ZM33.341,4.865H28.411V-6.1a7.425,7.425,0,0,1,1.582-4.917,6.473,6.473,0,0,1,2.314-1.74,6.823,6.823,0,0,1,2.881-.646,6.808,6.808,0,0,1,4.957,1.978,6.531,6.531,0,0,1,2.017,4.852,6.634,6.634,0,0,1-2,4.825A6.446,6.446,0,0,1,35.411.277q-.448,0-1.318-.092V-5.247a1.936,1.936,0,0,0,1.213.488,1.759,1.759,0,0,0,1.312-.567,1.871,1.871,0,0,0,.547-1.345A1.773,1.773,0,0,0,36.6-8a1.886,1.886,0,0,0-1.358-.547q-1.9,0-1.9,2.624ZM50.559-13.421a6.515,6.515,0,0,1,4.792,2.01,6.6,6.6,0,0,1,2,4.819A6.576,6.576,0,0,1,55.325-1.74a6.689,6.689,0,0,1-4.885,2,6.7,6.7,0,0,1-4.891-2.01,6.571,6.571,0,0,1-2.03-4.845,6.5,6.5,0,0,1,2.03-4.858A6.914,6.914,0,0,1,50.559-13.421Zm-.132,4.865a1.8,1.8,0,0,0-1.345.573,1.945,1.945,0,0,0-.554,1.4,1.939,1.939,0,0,0,.56,1.4,1.8,1.8,0,0,0,1.338.58,1.811,1.811,0,0,0,1.351-.58,1.939,1.939,0,0,0,.56-1.4,1.945,1.945,0,0,0-.554-1.4A1.814,1.814,0,0,0,50.427-8.556Zm16.189-4.72V-8a1.939,1.939,0,0,0-.936-.29q-1.345,0-1.345,2.057V0H59.405V-7.185a6.453,6.453,0,0,1,1.556-4.542,5.366,5.366,0,0,1,4.153-1.694A10.1,10.1,0,0,1,66.617-13.276ZM72.457-18v5.036h2.215v5.208H72.457a3.484,3.484,0,0,0,.494,2.162A2.271,2.271,0,0,0,74.764-5V.185Q74.382.2,74.2.2A6.7,6.7,0,0,1,71.04-.58a6.392,6.392,0,0,1-2.38-2.109A8.006,8.006,0,0,1,67.526-7.2V-18Z" transform="translate(128.786 337.548)" fill="#f5eded"/>
  </g>
</svg>
