<svg xmlns="http://www.w3.org/2000/svg" width="107.126" height="35.66" viewBox="0 0 107.126 35.66">
  <g id="go_btn" transform="translate(-94.695 -310.531)">
    <rect id="Rectangle_22" data-name="Rectangle 22" width="107.126" height="35.66" rx="4.47" transform="translate(94.695 310.531)" fill="#d72323"/>
    <path id="Path_1263" data-name="Path 1263" d="M9.426-10.085h5.1a6.769,6.769,0,0,1,1.648,4.311,5.8,5.8,0,0,1-1.931,4.43A6.724,6.724,0,0,1,9.492.448,8.139,8.139,0,0,1,3.27-2.333,9.648,9.648,0,0,1,.712-9.11a9.158,9.158,0,0,1,2.6-6.671,8.726,8.726,0,0,1,6.506-2.663,9.421,9.421,0,0,1,2.953.541v5.353a5.5,5.5,0,0,0-2.307-.593,4.2,4.2,0,0,0-3.078,1.173A4.083,4.083,0,0,0,6.2-8.925,4.125,4.125,0,0,0,7.3-5.893,4.017,4.017,0,0,0,10.3-4.772q1.2,0,1.2-.7Q11.5-6,10.705-6H9.426Zm17.455-8.358a8.873,8.873,0,0,1,6.559,2.782A9.161,9.161,0,0,1,36.176-9a9.117,9.117,0,0,1-2.755,6.7,9.117,9.117,0,0,1-6.7,2.755A9.108,9.108,0,0,1,20.039-2.32,9.108,9.108,0,0,1,17.271-9a9.035,9.035,0,0,1,2.788-6.7A9.36,9.36,0,0,1,26.881-18.444Zm-.158,5.3a3.743,3.743,0,0,0-2.808,1.213A4.081,4.081,0,0,0,22.755-9a4.069,4.069,0,0,0,1.167,2.927,3.749,3.749,0,0,0,2.8,1.213,3.746,3.746,0,0,0,2.815-1.206A4.087,4.087,0,0,0,30.691-9a4.087,4.087,0,0,0-1.154-2.933A3.746,3.746,0,0,0,26.723-13.144Z" transform="translate(128.786 338.548)" fill="#f5eded"/>
  </g>
</svg>
