<svg xmlns="http://www.w3.org/2000/svg" viewBox="0 0 194.04 85.82"><defs><style>.cls-1,.cls-3{fill:#fff;}.cls-2{fill:#8c8c8c;}.cls-3{font-size:25.32px;font-family:Bauhaus93, "Bauhaus 93";}.cls-4{fill:none;}.cls-5{fill:#4b5755;}.cls-6{fill:#edede5;stroke:#636666;stroke-miterlimit:10;}.cls-7{fill:#959999;}.cls-8{fill:#636666;}.cls-9{fill:#152819;}.cls-10{fill:#ced0c5;}.cls-11{fill:#78837f;}.cls-12{fill:#285430;}.cls-13{fill:#1a3321;}.cls-14{fill:#1e3b25;}.cls-15{fill:#254c2c;}.cls-16{fill:#214429;}</style></defs><g id="Layer_2" data-name="Layer 2"><g id="Character"><path class="cls-1" d="M95.08,45.67c.31.14,15.26,0,15.26,0L103.09,77.6c-4.8.47-7.62,3-18.63,2.71l6.37-35.25Z"/><path class="cls-2" d="M17.83,41.51H177.48a14.69,14.69,0,0,1,14.69,14.69v12.1A14.69,14.69,0,0,1,177.48,83H35.13a17.3,17.3,0,0,1-17.3-17.3V41.51A0,0,0,0,1,17.83,41.51Z"/><path class="cls-1" d="M183,39.63H100.67c.75-7.19,1-12.43.64-12.86a38.7,38.7,0,0,0-7.85-5.14h0c-.27-.42-5.2-2.54-9.94-4.11h.16l1.68-5.23c1.78.3,2.61-.45,2.65-2.06a1.29,1.29,0,0,0-.57-1.07C83,5.93,53-7.25,15.5,5.36c-1.31.44-1.27,3.32-1.09,5.23.09.87,1.26,1.7,2,1.11a3.83,3.83,0,0,1,.47-.35v5.17l0,.09c-3.83.52-7.81,1.14-12,1.86A5.88,5.88,0,0,0,.13,25.53l.6,2.71c.23,1,.46,2,.7,3l.78,3.31.87,3.54c.3,1.24.61,2.47.93,3.71s.65,2.56,1,3.84.68,2.61,1,3.92.71,2.63,1.07,3.95.72,2.62,1.09,3.93.74,2.58,1.12,3.87.73,2.5,1.11,3.75.73,2.4,1.11,3.59.72,2.26,1.1,3.39.7,2.09,1.07,3.12.67,1.89,1,2.82.64,1.65,1,2.47.6,1.38.93,2.06.55,1.09.86,1.62a7.66,7.66,0,0,0,.78,1.11,2.76,2.76,0,0,0,.87.49,12,12,0,0,0,2.07,0l.92-.15,1-.16,2-.31,2.4-.36c.36,0,.71,0,1.07,0H183a11,11,0,0,0,11-11V50.67A11.06,11.06,0,0,0,183,39.63Zm7.3,34.18a7.31,7.31,0,0,1-7.3,7.3H93.66c2.3-6.67,4.71-22,6.29-35.06H94.21V43.38H183a7.31,7.31,0,0,1,7.3,7.29Z"/><text class="cls-3" transform="translate(113.18 72.82)">GREEN</text><polygon class="cls-4" points="99.73 83.08 82.53 83.97 83.41 81.81 99.73 81.12 99.73 83.08"/><polygon class="cls-5" points="21.89 19.2 21.89 10.06 49.8 5.64 70.64 9.67 79.68 13.11 77.65 20.1 23.27 25 21.89 19.2"/><path class="cls-6" d="M81.27,13.37a1.24,1.24,0,0,0-.48-1c-3.74-3-28.72-15.15-60-3.5-1.1.41-1.06,3.07-.91,4.84.07.8,1.05,1.57,1.63,1,4.39-4.09,33.7-12.27,56.8.33C80.31,15.76,81.22,15.09,81.27,13.37Z"/><path class="cls-7" d="M24,13.83A6.87,6.87,0,0,1,24.35,19,6.88,6.88,0,0,1,24,13.83Z"/><path class="cls-7" d="M43.64,9.44a7,7,0,0,1-.14,5.26,7,7,0,0,1,.14-5.26Z"/><path class="cls-8" d="M28.05,7.33a4.13,4.13,0,0,1,.46,4,4.1,4.1,0,0,1-.46-4Z"/><path class="cls-8" d="M37.8,5a4,4,0,0,1,.08,3.94A4,4,0,0,1,37.8,5Z"/><path class="cls-8" d="M48.3,4.24A3.62,3.62,0,0,1,48.23,8a3.62,3.62,0,0,1,.07-3.72Z"/><path class="cls-8" d="M56.49,5a4.16,4.16,0,0,1-.27,4,4.16,4.16,0,0,1,.27-4Z"/><path class="cls-8" d="M64.2,5.79a4.13,4.13,0,0,1-.62,3.94,4.11,4.11,0,0,1,.62-3.94Z"/><path class="cls-8" d="M72.54,8.54a3.51,3.51,0,0,1-.65,3.6,3.51,3.51,0,0,1,.65-3.6Z"/><path class="cls-7" d="M30.74,11.63a8,8,0,0,1,.56,5.62,8,8,0,0,1-.56-5.62Z"/><path class="cls-7" d="M58.32,10.06a7,7,0,0,1-.13,5.26,6.94,6.94,0,0,1,.13-5.26Z"/><path class="cls-7" d="M68.8,11.83a7.11,7.11,0,0,1-.72,5.26,7.15,7.15,0,0,1,.72-5.26Z"/><path class="cls-9" d="M90,44.79c.28.13,17.44,1.7,17.44,1.7l-3.27,35.85c-4.25.43-14.61.1-24.38-.16l6.35-36.61Z"/><polygon class="cls-10" points="89.45 66.81 89.45 66.08 80.44 66.08 80.44 66.6 89.45 66.81"/><polygon class="cls-10" points="80.79 67.44 89.87 67.64 89.87 66.92 89.45 66.92 80.79 66.92 80.79 67.44"/><polygon class="cls-10" points="81.15 68.28 90.29 68.48 90.29 67.75 89.87 67.75 81.15 67.75 81.15 68.28"/><polygon class="cls-10" points="81.5 69.11 90.7 69.31 90.7 68.59 90.29 68.59 81.5 68.59 81.5 69.11"/><polygon class="cls-10" points="81.85 69.95 91.12 70.15 91.12 69.43 90.7 69.43 81.85 69.43 81.85 69.95"/><polygon class="cls-10" points="82.2 70.78 91.54 70.99 91.54 70.27 91.12 70.27 82.2 70.27 82.2 70.78"/><polygon class="cls-10" points="82.56 71.62 91.96 71.82 91.96 71.1 91.54 71.1 82.56 71.1 82.56 71.62"/><polygon class="cls-10" points="82.91 72.46 92.37 72.66 92.37 71.94 91.96 71.94 82.91 71.94 82.91 72.46"/><polygon class="cls-10" points="83.26 73.29 92.79 73.5 92.79 72.77 92.37 72.77 83.26 72.77 83.26 73.29"/><polygon class="cls-10" points="83.61 74.13 93.21 74.33 93.21 73.61 92.79 73.61 83.61 73.61 83.61 74.13"/><polygon class="cls-10" points="83.97 74.97 93.62 75.17 93.62 74.45 93.21 74.45 83.97 74.45 83.97 74.97"/><polygon class="cls-10" points="84.32 75.8 94.04 76 94.04 75.28 93.62 75.28 84.32 75.28 84.32 75.8"/><polygon class="cls-10" points="84.67 76.64 94.46 76.84 94.46 76.12 94.04 76.12 84.67 76.12 84.67 76.64"/><polygon class="cls-10" points="85.02 77.48 94.88 77.68 94.88 76.96 94.46 76.96 85.02 76.96 85.02 77.48"/><polygon class="cls-10" points="85.37 78.31 95.29 78.52 95.29 77.79 94.88 77.79 85.37 77.79 85.37 78.31"/><polygon class="cls-10" points="85.73 79.15 95.71 79.35 95.71 78.63 95.29 78.63 85.73 78.63 85.73 79.15"/><polygon class="cls-10" points="86.08 79.99 96.13 80.19 96.13 79.47 95.71 79.47 86.08 79.47 86.08 79.99"/><polygon class="cls-10" points="86.43 80.82 96.55 81.02 96.55 80.3 96.13 80.3 86.43 80.3 86.43 80.82"/><polygon class="cls-10" points="86.78 81.66 96.96 81.86 96.96 81.14 96.55 81.14 86.78 81.14 86.78 81.66"/><polygon class="cls-10" points="96.96 81.97 87.14 81.97 87.14 82.5 97.38 82.7 97.38 81.97 96.96 81.97"/><polygon class="cls-11" points="87.14 81.97 96.96 81.97 96.96 81.86 86.78 81.66 86.78 81.14 96.55 81.14 96.55 81.02 86.43 80.82 86.43 80.3 96.13 80.3 96.13 80.19 86.08 79.99 86.08 79.47 95.71 79.47 95.71 79.35 85.73 79.15 85.73 78.63 95.29 78.63 95.29 78.52 85.37 78.31 85.37 77.79 94.88 77.79 94.88 77.68 85.02 77.48 85.02 76.96 94.46 76.96 94.46 76.84 84.67 76.64 84.67 76.12 94.04 76.12 94.04 76 84.32 75.8 84.32 75.28 93.62 75.28 93.62 75.17 83.97 74.97 83.97 74.45 93.21 74.45 93.21 74.33 83.61 74.13 83.61 73.61 92.79 73.61 92.79 73.5 83.26 73.29 83.26 72.77 92.37 72.77 92.37 72.66 82.91 72.46 82.91 71.94 91.96 71.94 91.96 71.82 82.56 71.62 82.56 71.1 91.54 71.1 91.54 70.99 82.2 70.78 82.2 70.27 91.12 70.27 91.12 70.15 81.85 69.95 81.85 69.43 90.7 69.43 90.7 69.31 81.5 69.11 81.5 68.59 90.29 68.59 90.29 68.48 81.15 68.28 81.15 67.75 89.87 67.75 89.87 67.64 80.79 67.44 80.79 66.92 89.45 66.92 89.45 66.81 80.44 66.6 80.44 66.08 80.08 66.08 80.99 82.21 87.14 82.77 97.38 82.84 97.38 82.7 87.14 82.5 87.14 81.97"/><path class="cls-12" d="M5.66,27.53C9,41.9,18.15,79.88,21.89,83.38c0,0,48.48-7.75,65.55-.54,0,0,9.38-36.35,9-54.17,0,0-19-19.76-86.45-7.66A5.38,5.38,0,0,0,5.66,27.53Z"/><polygon class="cls-13" points="106.41 82.49 100.42 82.49 105.82 47.7 93.61 47.7 94.47 43.96 110.34 43.96 106.41 82.49"/><polygon class="cls-4" points="98.65 80.43 96.98 77.28 84.5 78.86 83.61 81.12 98.65 80.43"/><path class="cls-14" d="M60,80.76s9.8-59.25,11.91-61.95c1.38-1.76,15.84,4.08,16.28,4.8,1,1.56-8.8,55.74-13,58.5A127.72,127.72,0,0,0,60,80.76Z"/><path class="cls-13" d="M75,82.1c1.95.81,11.29-58.81,13-58.52,2.09.35,7.58,4.28,8.36,5.09,1.28,1.33-4.77,51.41-9,54.17A119.66,119.66,0,0,0,75,82.1Z"/><path class="cls-15" d="M12.26,20.6s12.12,58,16.15,61.85c0,0,9.24-1.46,11.51-1.23a.34.34,0,0,0,.39-.35l-.86-63.54S17.17,18.44,12.26,20.6Z"/><path class="cls-16" d="M40.12,81.26a.25.25,0,0,1-.24-.21c-.46-4-7.36-62.55-5.08-65.73S74.19,17.06,73,18.75c-1.47,2-8.65,58.68-11.68,62C61.27,80.7,48.76,81.3,40.12,81.26Z"/></g></g></svg>